<?xml version="1.0" standalone="no"?>
<!DOCTYPE svg PUBLIC "-//W3C//DTD SVG 20010904//EN"
 "http://www.w3.org/TR/2001/REC-SVG-20010904/DTD/svg10.dtd">
<svg version="1.0" xmlns="http://www.w3.org/2000/svg"
 width="300.000000pt" height="300.000000pt" viewBox="0 0 300.000000 300.000000"
 preserveAspectRatio="xMidYMid meet">
<g transform="translate(0.000000,300.000000) scale(0.100000,-0.100000)"
fill="#d24670" stroke="none">
<path d="M1759 1659 c-239 -215 -502 -452 -586 -527 l-151 -137 416 -3 c229
-1 422 0 427 2 6 2 53 77 105 167 51 90 100 175 109 189 l15 25 -24 -20 c-14
-11 -52 -45 -85 -76 -33 -30 -83 -77 -111 -102 l-51 -47 -212 0 c-127 0 -211
4 -211 10 0 8 344 401 686 783 63 70 113 127 111 127 -2 0 -199 -176 -438
-391z"/>
<path d="M1116 1988 c-13 -22 -101 -175 -173 -302 l-33 -58 44 38 c25 22 85
76 135 122 l91 82 204 0 c117 0 207 -4 211 -9 3 -6 -121 -153 -276 -328 -155
-175 -312 -352 -348 -393 -36 -41 -86 -96 -110 -122 -24 -26 -39 -48 -33 -48
6 0 14 5 17 11 4 6 253 231 554 501 300 270 555 499 566 510 19 18 8 18 -408
18 l-427 0 -14 -22z"/>
</g>
</svg>
